<mxfile host="app.diagrams.net" agent="Mozilla/5.0 (Macintosh; Intel Mac OS X 10_15_7) AppleWebKit/537.36 (KHTML, like Gecko) Chrome/138.0.0.0 Safari/537.36" version="28.0.4">
  <diagram id="C5RBs43oDa-KdzZeNtuy" name="Page-1">
    <mxGraphModel dx="2468" dy="1410" grid="1" gridSize="10" guides="1" tooltips="1" connect="1" arrows="1" fold="1" page="1" pageScale="1" pageWidth="827" pageHeight="1169" math="0" shadow="0">
      <root>
        <mxCell id="WIyWlLk6GJQsqaUBKTNV-0" />
        <mxCell id="WIyWlLk6GJQsqaUBKTNV-1" parent="WIyWlLk6GJQsqaUBKTNV-0" />
        <mxCell id="4ZIx8jXjQs4yDSa4IabG-0" value="XVI Project Translation Generate Flow" style="swimlane;childLayout=stackLayout;resizeParent=1;resizeParentMax=0;startSize=20;html=1;" vertex="1" parent="WIyWlLk6GJQsqaUBKTNV-1">
          <mxGeometry x="310.00000000000045" y="80" width="850" height="1200" as="geometry" />
        </mxCell>
        <mxCell id="4ZIx8jXjQs4yDSa4IabG-1" value="i18n key to hash" style="swimlane;startSize=20;html=1;" vertex="1" parent="4ZIx8jXjQs4yDSa4IabG-0">
          <mxGeometry y="20" width="540" height="1180" as="geometry" />
        </mxCell>
        <mxCell id="4ZIx8jXjQs4yDSa4IabG-25" style="edgeStyle=orthogonalEdgeStyle;rounded=0;orthogonalLoop=1;jettySize=auto;html=1;entryX=0.5;entryY=0;entryDx=0;entryDy=0;" edge="1" parent="4ZIx8jXjQs4yDSa4IabG-1" source="4ZIx8jXjQs4yDSa4IabG-9" target="4ZIx8jXjQs4yDSa4IabG-24">
          <mxGeometry relative="1" as="geometry" />
        </mxCell>
        <mxCell id="4ZIx8jXjQs4yDSa4IabG-9" value="Get i18n enums form folders" style="rounded=1;whiteSpace=wrap;html=1;fontSize=12;glass=0;strokeWidth=1;shadow=0;" vertex="1" parent="4ZIx8jXjQs4yDSa4IabG-1">
          <mxGeometry x="194.99999999999955" y="181" width="120" height="40" as="geometry" />
        </mxCell>
        <mxCell id="4ZIx8jXjQs4yDSa4IabG-15" value="Yes" style="edgeStyle=orthogonalEdgeStyle;rounded=0;orthogonalLoop=1;jettySize=auto;html=1;" edge="1" parent="4ZIx8jXjQs4yDSa4IabG-1" source="4ZIx8jXjQs4yDSa4IabG-13" target="4ZIx8jXjQs4yDSa4IabG-14">
          <mxGeometry relative="1" as="geometry" />
        </mxCell>
        <mxCell id="4ZIx8jXjQs4yDSa4IabG-13" value="Has next&lt;div&gt;enum&lt;/div&gt;" style="rhombus;whiteSpace=wrap;html=1;shadow=0;fontFamily=Helvetica;fontSize=12;align=center;strokeWidth=1;spacing=6;spacingTop=-4;" vertex="1" parent="4ZIx8jXjQs4yDSa4IabG-1">
          <mxGeometry x="204.99999999999955" y="461" width="100" height="80" as="geometry" />
        </mxCell>
        <mxCell id="4ZIx8jXjQs4yDSa4IabG-17" style="edgeStyle=orthogonalEdgeStyle;rounded=0;orthogonalLoop=1;jettySize=auto;html=1;exitX=0.5;exitY=1;exitDx=0;exitDy=0;entryX=0.5;entryY=0;entryDx=0;entryDy=0;" edge="1" parent="4ZIx8jXjQs4yDSa4IabG-1" source="4ZIx8jXjQs4yDSa4IabG-14" target="4ZIx8jXjQs4yDSa4IabG-16">
          <mxGeometry relative="1" as="geometry" />
        </mxCell>
        <mxCell id="4ZIx8jXjQs4yDSa4IabG-14" value="Get next enum" style="rounded=1;whiteSpace=wrap;html=1;fontSize=12;glass=0;strokeWidth=1;shadow=0;" vertex="1" parent="4ZIx8jXjQs4yDSa4IabG-1">
          <mxGeometry x="195.99999999999955" y="578" width="120" height="40" as="geometry" />
        </mxCell>
        <mxCell id="4ZIx8jXjQs4yDSa4IabG-19" value="No" style="edgeStyle=orthogonalEdgeStyle;rounded=0;orthogonalLoop=1;jettySize=auto;html=1;entryX=0.5;entryY=0;entryDx=0;entryDy=0;" edge="1" parent="4ZIx8jXjQs4yDSa4IabG-1" source="4ZIx8jXjQs4yDSa4IabG-16" target="4ZIx8jXjQs4yDSa4IabG-18">
          <mxGeometry relative="1" as="geometry" />
        </mxCell>
        <mxCell id="4ZIx8jXjQs4yDSa4IabG-16" value="Used enum?" style="rhombus;whiteSpace=wrap;html=1;shadow=0;fontFamily=Helvetica;fontSize=12;align=center;strokeWidth=1;spacing=6;spacingTop=-4;" vertex="1" parent="4ZIx8jXjQs4yDSa4IabG-1">
          <mxGeometry x="205.99999999999955" y="668" width="100" height="80" as="geometry" />
        </mxCell>
        <mxCell id="4ZIx8jXjQs4yDSa4IabG-21" style="edgeStyle=orthogonalEdgeStyle;rounded=0;orthogonalLoop=1;jettySize=auto;html=1;" edge="1" parent="4ZIx8jXjQs4yDSa4IabG-1" source="4ZIx8jXjQs4yDSa4IabG-18" target="4ZIx8jXjQs4yDSa4IabG-20">
          <mxGeometry relative="1" as="geometry" />
        </mxCell>
        <mxCell id="4ZIx8jXjQs4yDSa4IabG-18" value="Replace enum value&lt;div&gt;with value hash&lt;/div&gt;" style="rounded=1;whiteSpace=wrap;html=1;fontSize=12;glass=0;strokeWidth=1;shadow=0;" vertex="1" parent="4ZIx8jXjQs4yDSa4IabG-1">
          <mxGeometry x="195.99999999999955" y="798" width="120" height="40" as="geometry" />
        </mxCell>
        <mxCell id="4ZIx8jXjQs4yDSa4IabG-23" value="No" style="edgeStyle=orthogonalEdgeStyle;rounded=0;orthogonalLoop=1;jettySize=auto;html=1;entryX=0.5;entryY=0;entryDx=0;entryDy=0;" edge="1" parent="4ZIx8jXjQs4yDSa4IabG-1" source="4ZIx8jXjQs4yDSa4IabG-20" target="4ZIx8jXjQs4yDSa4IabG-22">
          <mxGeometry relative="1" as="geometry" />
        </mxCell>
        <mxCell id="4ZIx8jXjQs4yDSa4IabG-31" value="Yes" style="edgeStyle=orthogonalEdgeStyle;rounded=0;orthogonalLoop=1;jettySize=auto;html=1;entryX=1;entryY=0.5;entryDx=0;entryDy=0;" edge="1" parent="4ZIx8jXjQs4yDSa4IabG-1" source="4ZIx8jXjQs4yDSa4IabG-20" target="4ZIx8jXjQs4yDSa4IabG-29">
          <mxGeometry relative="1" as="geometry" />
        </mxCell>
        <mxCell id="4ZIx8jXjQs4yDSa4IabG-20" value="Has&lt;div&gt;replaced content&lt;/div&gt;" style="rhombus;whiteSpace=wrap;html=1;shadow=0;fontFamily=Helvetica;fontSize=12;align=center;strokeWidth=1;spacing=6;spacingTop=-4;" vertex="1" parent="4ZIx8jXjQs4yDSa4IabG-1">
          <mxGeometry x="198.5" y="888" width="115" height="100" as="geometry" />
        </mxCell>
        <mxCell id="4ZIx8jXjQs4yDSa4IabG-32" style="edgeStyle=orthogonalEdgeStyle;rounded=0;orthogonalLoop=1;jettySize=auto;html=1;exitX=0;exitY=0.5;exitDx=0;exitDy=0;entryX=0;entryY=0.5;entryDx=0;entryDy=0;" edge="1" parent="4ZIx8jXjQs4yDSa4IabG-1" source="4ZIx8jXjQs4yDSa4IabG-22" target="4ZIx8jXjQs4yDSa4IabG-24">
          <mxGeometry relative="1" as="geometry">
            <mxPoint x="179.99999999999955" y="311" as="targetPoint" />
            <Array as="points">
              <mxPoint x="20" y="1058" />
              <mxPoint x="20" y="291" />
            </Array>
          </mxGeometry>
        </mxCell>
        <mxCell id="4ZIx8jXjQs4yDSa4IabG-22" value="Show not able to replace value error" style="rounded=1;whiteSpace=wrap;html=1;fontSize=12;glass=0;strokeWidth=1;shadow=0;" vertex="1" parent="4ZIx8jXjQs4yDSa4IabG-1">
          <mxGeometry x="195.99999999999955" y="1038" width="120" height="40" as="geometry" />
        </mxCell>
        <mxCell id="4ZIx8jXjQs4yDSa4IabG-28" value="No" style="edgeStyle=orthogonalEdgeStyle;rounded=0;orthogonalLoop=1;jettySize=auto;html=1;exitX=0;exitY=0.5;exitDx=0;exitDy=0;entryX=1;entryY=0.5;entryDx=0;entryDy=0;" edge="1" parent="4ZIx8jXjQs4yDSa4IabG-1" source="4ZIx8jXjQs4yDSa4IabG-34" target="4ZIx8jXjQs4yDSa4IabG-27">
          <mxGeometry relative="1" as="geometry" />
        </mxCell>
        <mxCell id="4ZIx8jXjQs4yDSa4IabG-35" value="Yes" style="edgeStyle=orthogonalEdgeStyle;rounded=0;orthogonalLoop=1;jettySize=auto;html=1;exitX=0.5;exitY=1;exitDx=0;exitDy=0;" edge="1" parent="4ZIx8jXjQs4yDSa4IabG-1" source="4ZIx8jXjQs4yDSa4IabG-24" target="4ZIx8jXjQs4yDSa4IabG-34">
          <mxGeometry relative="1" as="geometry" />
        </mxCell>
        <mxCell id="4ZIx8jXjQs4yDSa4IabG-64" style="edgeStyle=orthogonalEdgeStyle;rounded=0;orthogonalLoop=1;jettySize=auto;html=1;" edge="1" parent="4ZIx8jXjQs4yDSa4IabG-1" source="4ZIx8jXjQs4yDSa4IabG-24" target="4ZIx8jXjQs4yDSa4IabG-63">
          <mxGeometry relative="1" as="geometry" />
        </mxCell>
        <mxCell id="4ZIx8jXjQs4yDSa4IabG-65" value="No" style="edgeLabel;html=1;align=center;verticalAlign=middle;resizable=0;points=[];" vertex="1" connectable="0" parent="4ZIx8jXjQs4yDSa4IabG-64">
          <mxGeometry x="-0.5404" y="1" relative="1" as="geometry">
            <mxPoint as="offset" />
          </mxGeometry>
        </mxCell>
        <mxCell id="4ZIx8jXjQs4yDSa4IabG-24" value="has next file?" style="rhombus;whiteSpace=wrap;html=1;shadow=0;fontFamily=Helvetica;fontSize=12;align=center;strokeWidth=1;spacing=6;spacingTop=-4;" vertex="1" parent="4ZIx8jXjQs4yDSa4IabG-1">
          <mxGeometry x="204.99999999999955" y="251" width="100" height="80" as="geometry" />
        </mxCell>
        <mxCell id="4ZIx8jXjQs4yDSa4IabG-62" style="edgeStyle=orthogonalEdgeStyle;rounded=0;orthogonalLoop=1;jettySize=auto;html=1;entryX=0;entryY=0.5;entryDx=0;entryDy=0;exitX=0;exitY=0.5;exitDx=0;exitDy=0;" edge="1" parent="4ZIx8jXjQs4yDSa4IabG-1" source="4ZIx8jXjQs4yDSa4IabG-27" target="4ZIx8jXjQs4yDSa4IabG-24">
          <mxGeometry relative="1" as="geometry">
            <Array as="points">
              <mxPoint x="30" y="397" />
              <mxPoint x="10" y="397" />
              <mxPoint x="10" y="291" />
            </Array>
          </mxGeometry>
        </mxCell>
        <mxCell id="4ZIx8jXjQs4yDSa4IabG-27" value="Show file syntax is wrong error" style="rounded=1;whiteSpace=wrap;html=1;fontSize=12;glass=0;strokeWidth=1;shadow=0;" vertex="1" parent="4ZIx8jXjQs4yDSa4IabG-1">
          <mxGeometry x="55.999999999999545" y="376.5" width="120" height="40" as="geometry" />
        </mxCell>
        <mxCell id="4ZIx8jXjQs4yDSa4IabG-33" style="edgeStyle=orthogonalEdgeStyle;rounded=0;orthogonalLoop=1;jettySize=auto;html=1;exitX=0;exitY=0.5;exitDx=0;exitDy=0;entryX=0;entryY=0.5;entryDx=0;entryDy=0;" edge="1" parent="4ZIx8jXjQs4yDSa4IabG-1" source="4ZIx8jXjQs4yDSa4IabG-29" target="4ZIx8jXjQs4yDSa4IabG-24">
          <mxGeometry relative="1" as="geometry">
            <mxPoint x="149.99999999999955" y="310" as="targetPoint" />
            <Array as="points">
              <mxPoint x="20" y="938" />
              <mxPoint x="20" y="291" />
            </Array>
          </mxGeometry>
        </mxCell>
        <mxCell id="4ZIx8jXjQs4yDSa4IabG-29" value="Write hash to file" style="rounded=1;whiteSpace=wrap;html=1;fontSize=12;glass=0;strokeWidth=1;shadow=0;" vertex="1" parent="4ZIx8jXjQs4yDSa4IabG-1">
          <mxGeometry x="41.999999999999545" y="918" width="120" height="40" as="geometry" />
        </mxCell>
        <mxCell id="4ZIx8jXjQs4yDSa4IabG-36" value="Yes" style="edgeStyle=orthogonalEdgeStyle;rounded=0;orthogonalLoop=1;jettySize=auto;html=1;exitX=0.5;exitY=1;exitDx=0;exitDy=0;entryX=0.5;entryY=0;entryDx=0;entryDy=0;" edge="1" parent="4ZIx8jXjQs4yDSa4IabG-1" source="4ZIx8jXjQs4yDSa4IabG-34" target="4ZIx8jXjQs4yDSa4IabG-13">
          <mxGeometry relative="1" as="geometry" />
        </mxCell>
        <mxCell id="4ZIx8jXjQs4yDSa4IabG-34" value="has any enum?" style="rhombus;whiteSpace=wrap;html=1;shadow=0;fontFamily=Helvetica;fontSize=12;align=center;strokeWidth=1;spacing=6;spacingTop=-4;" vertex="1" parent="4ZIx8jXjQs4yDSa4IabG-1">
          <mxGeometry x="215" y="361" width="80" height="71" as="geometry" />
        </mxCell>
        <mxCell id="4ZIx8jXjQs4yDSa4IabG-67" style="edgeStyle=orthogonalEdgeStyle;rounded=0;orthogonalLoop=1;jettySize=auto;html=1;" edge="1" parent="4ZIx8jXjQs4yDSa4IabG-1" source="4ZIx8jXjQs4yDSa4IabG-63" target="4ZIx8jXjQs4yDSa4IabG-66">
          <mxGeometry relative="1" as="geometry" />
        </mxCell>
        <mxCell id="4ZIx8jXjQs4yDSa4IabG-63" value="Write all hash data and value into default.en-us.json" style="rounded=1;whiteSpace=wrap;html=1;fontSize=12;glass=0;strokeWidth=1;shadow=0;" vertex="1" parent="4ZIx8jXjQs4yDSa4IabG-1">
          <mxGeometry x="342" y="378.25" width="170" height="36.5" as="geometry" />
        </mxCell>
        <mxCell id="4ZIx8jXjQs4yDSa4IabG-69" style="edgeStyle=orthogonalEdgeStyle;rounded=0;orthogonalLoop=1;jettySize=auto;html=1;entryX=0.5;entryY=0;entryDx=0;entryDy=0;" edge="1" parent="4ZIx8jXjQs4yDSa4IabG-1" source="4ZIx8jXjQs4yDSa4IabG-66" target="4ZIx8jXjQs4yDSa4IabG-68">
          <mxGeometry relative="1" as="geometry" />
        </mxCell>
        <mxCell id="4ZIx8jXjQs4yDSa4IabG-66" value="Write all enum key data and value into enum-to-text-dictionary.json" style="rounded=1;whiteSpace=wrap;html=1;fontSize=12;glass=0;strokeWidth=1;shadow=0;" vertex="1" parent="4ZIx8jXjQs4yDSa4IabG-1">
          <mxGeometry x="327" y="470" width="200" height="47.5" as="geometry" />
        </mxCell>
        <mxCell id="4ZIx8jXjQs4yDSa4IabG-68" value="Show success translated default message" style="rounded=1;whiteSpace=wrap;html=1;fontSize=12;glass=0;strokeWidth=1;shadow=0;" vertex="1" parent="4ZIx8jXjQs4yDSa4IabG-1">
          <mxGeometry x="349.5" y="570" width="155" height="40" as="geometry" />
        </mxCell>
        <mxCell id="4ZIx8jXjQs4yDSa4IabG-2" value="QA Translation Generator" style="swimlane;startSize=20;html=1;" vertex="1" parent="4ZIx8jXjQs4yDSa4IabG-0">
          <mxGeometry x="540" y="20" width="190" height="1180" as="geometry" />
        </mxCell>
        <mxCell id="4ZIx8jXjQs4yDSa4IabG-75" style="edgeStyle=orthogonalEdgeStyle;rounded=0;orthogonalLoop=1;jettySize=auto;html=1;exitX=0.5;exitY=1;exitDx=0;exitDy=0;" edge="1" parent="4ZIx8jXjQs4yDSa4IabG-2" source="4ZIx8jXjQs4yDSa4IabG-72" target="4ZIx8jXjQs4yDSa4IabG-74">
          <mxGeometry relative="1" as="geometry" />
        </mxCell>
        <mxCell id="4ZIx8jXjQs4yDSa4IabG-72" value="Read default.en-us.json" style="rounded=1;whiteSpace=wrap;html=1;fontSize=12;glass=0;strokeWidth=1;shadow=0;" vertex="1" parent="4ZIx8jXjQs4yDSa4IabG-2">
          <mxGeometry x="22.5" y="90" width="145" height="40" as="geometry" />
        </mxCell>
        <mxCell id="4ZIx8jXjQs4yDSa4IabG-77" style="edgeStyle=orthogonalEdgeStyle;rounded=0;orthogonalLoop=1;jettySize=auto;html=1;entryX=0.5;entryY=0;entryDx=0;entryDy=0;" edge="1" parent="4ZIx8jXjQs4yDSa4IabG-2" source="4ZIx8jXjQs4yDSa4IabG-74" target="4ZIx8jXjQs4yDSa4IabG-76">
          <mxGeometry relative="1" as="geometry" />
        </mxCell>
        <mxCell id="4ZIx8jXjQs4yDSa4IabG-74" value="Add *{value}* for each value" style="rounded=1;whiteSpace=wrap;html=1;fontSize=12;glass=0;strokeWidth=1;shadow=0;" vertex="1" parent="4ZIx8jXjQs4yDSa4IabG-2">
          <mxGeometry x="12.5" y="181" width="165" height="40" as="geometry" />
        </mxCell>
        <mxCell id="4ZIx8jXjQs4yDSa4IabG-79" style="edgeStyle=orthogonalEdgeStyle;rounded=0;orthogonalLoop=1;jettySize=auto;html=1;entryX=0.5;entryY=0;entryDx=0;entryDy=0;" edge="1" parent="4ZIx8jXjQs4yDSa4IabG-2" source="4ZIx8jXjQs4yDSa4IabG-76" target="4ZIx8jXjQs4yDSa4IabG-78">
          <mxGeometry relative="1" as="geometry" />
        </mxCell>
        <mxCell id="4ZIx8jXjQs4yDSa4IabG-76" value="Write all hash data and value into qa.en-us.json" style="rounded=1;whiteSpace=wrap;html=1;fontSize=12;glass=0;strokeWidth=1;shadow=0;" vertex="1" parent="4ZIx8jXjQs4yDSa4IabG-2">
          <mxGeometry x="9.999999999999545" y="270" width="170" height="36.5" as="geometry" />
        </mxCell>
        <mxCell id="4ZIx8jXjQs4yDSa4IabG-78" value="Show success translated qa message" style="rounded=1;whiteSpace=wrap;html=1;fontSize=12;glass=0;strokeWidth=1;shadow=0;" vertex="1" parent="4ZIx8jXjQs4yDSa4IabG-2">
          <mxGeometry x="17.499999999999545" y="360" width="155" height="40" as="geometry" />
        </mxCell>
        <mxCell id="4ZIx8jXjQs4yDSa4IabG-3" value="Lane 3" style="swimlane;startSize=20;html=1;" vertex="1" parent="4ZIx8jXjQs4yDSa4IabG-0">
          <mxGeometry x="730" y="20" width="120" height="1180" as="geometry" />
        </mxCell>
        <mxCell id="4ZIx8jXjQs4yDSa4IabG-7" style="edgeStyle=orthogonalEdgeStyle;rounded=0;orthogonalLoop=1;jettySize=auto;html=1;entryX=0;entryY=0.5;entryDx=0;entryDy=0;" edge="1" parent="WIyWlLk6GJQsqaUBKTNV-1" source="4ZIx8jXjQs4yDSa4IabG-4" target="4ZIx8jXjQs4yDSa4IabG-9">
          <mxGeometry relative="1" as="geometry">
            <mxPoint x="450" y="350" as="targetPoint" />
          </mxGeometry>
        </mxCell>
        <mxCell id="4ZIx8jXjQs4yDSa4IabG-4" value="npm run&lt;div&gt;generate:i18n:default&lt;/div&gt;" style="rounded=1;whiteSpace=wrap;html=1;fontSize=12;glass=0;strokeWidth=1;shadow=0;" vertex="1" parent="WIyWlLk6GJQsqaUBKTNV-1">
          <mxGeometry x="120" y="281" width="120" height="40" as="geometry" />
        </mxCell>
        <mxCell id="4ZIx8jXjQs4yDSa4IabG-73" style="edgeStyle=orthogonalEdgeStyle;rounded=0;orthogonalLoop=1;jettySize=auto;html=1;entryX=0;entryY=0.5;entryDx=0;entryDy=0;" edge="1" parent="WIyWlLk6GJQsqaUBKTNV-1" source="4ZIx8jXjQs4yDSa4IabG-5" target="4ZIx8jXjQs4yDSa4IabG-72">
          <mxGeometry relative="1" as="geometry" />
        </mxCell>
        <mxCell id="4ZIx8jXjQs4yDSa4IabG-5" value="npm run&lt;div&gt;generate:i18n:qa&lt;/div&gt;" style="rounded=1;whiteSpace=wrap;html=1;fontSize=12;glass=0;strokeWidth=1;shadow=0;" vertex="1" parent="WIyWlLk6GJQsqaUBKTNV-1">
          <mxGeometry x="120" y="190" width="120" height="40" as="geometry" />
        </mxCell>
        <mxCell id="4ZIx8jXjQs4yDSa4IabG-70" value="End" style="rounded=1;whiteSpace=wrap;html=1;fontSize=12;glass=0;strokeWidth=1;shadow=0;" vertex="1" parent="WIyWlLk6GJQsqaUBKTNV-1">
          <mxGeometry x="677" y="1370" width="120" height="40" as="geometry" />
        </mxCell>
        <mxCell id="4ZIx8jXjQs4yDSa4IabG-71" style="edgeStyle=orthogonalEdgeStyle;rounded=0;orthogonalLoop=1;jettySize=auto;html=1;entryX=0.5;entryY=0;entryDx=0;entryDy=0;" edge="1" parent="WIyWlLk6GJQsqaUBKTNV-1" source="4ZIx8jXjQs4yDSa4IabG-68" target="4ZIx8jXjQs4yDSa4IabG-70">
          <mxGeometry relative="1" as="geometry" />
        </mxCell>
        <mxCell id="4ZIx8jXjQs4yDSa4IabG-80" style="edgeStyle=orthogonalEdgeStyle;rounded=0;orthogonalLoop=1;jettySize=auto;html=1;entryX=1;entryY=0.5;entryDx=0;entryDy=0;" edge="1" parent="WIyWlLk6GJQsqaUBKTNV-1" source="4ZIx8jXjQs4yDSa4IabG-78" target="4ZIx8jXjQs4yDSa4IabG-70">
          <mxGeometry relative="1" as="geometry">
            <mxPoint x="940" y="1330" as="targetPoint" />
            <Array as="points">
              <mxPoint x="945" y="1390" />
            </Array>
          </mxGeometry>
        </mxCell>
      </root>
    </mxGraphModel>
  </diagram>
</mxfile>
